<?xml version="1.0" encoding="UTF-8" standalone="no"?>
<!-- Created with Inkscape (http://www.inkscape.org/) -->

<svg
   width="11.972258mm"
   height="31.364382mm"
   viewBox="0 0 11.972258 31.364382"
   version="1.1"
   id="svg1"
   xmlns="http://www.w3.org/2000/svg"
   xmlns:svg="http://www.w3.org/2000/svg">
  <defs
     id="defs1" />
  <g
     id="layer1"
     transform="translate(-101.79379,-109.91441)">
    <g
       id="text2"
       style="font-size:12.7px;line-height:0.8;text-align:center;text-anchor:middle;stroke-width:0.264583"
       aria-label="蔡&#10;仁&#10;俊">
      <path
         style="font-family:YEFONTZhuRiHanLiTi;-inkscape-font-specification:YEFONTZhuRiHanLiTi"
         d="m 108.93687,109.93296 c 0.78368,-0.169 0.11122,0.86995 0.52507,0.94153 0.21774,-0.003 0.55416,0.0197 0.60523,0.13797 0.38183,0.0621 0.97515,0.47954 0.79057,0.91757 -0.28686,0.20927 -0.64138,0.2853 -0.94709,0.27623 -0.24496,-0.0392 -0.52909,0.11549 -0.78328,-0.0508 -0.38488,0.21356 -0.22984,1.03616 -0.77308,1.15252 -0.42675,-0.0129 -0.32997,-0.55155 -0.34732,-0.85202 -0.0577,-0.16629 0.2057,-0.56046 -0.092,-0.3767 -0.22161,-0.10196 -0.54375,-0.0333 -0.75739,-0.0542 -0.19384,0.0177 -0.4204,0.0285 -0.59527,0.0356 -0.49622,-0.0939 -0.0226,0.80945 -0.46508,0.97225 -0.68107,0.34928 -0.37703,-0.91021 -0.6854,-0.98782 -0.31628,0.10051 -0.54486,0.0271 -0.83668,0.11327 -0.18615,0.0582 -0.37801,0.17144 -0.54075,0.004 -0.32914,-0.19564 -0.0876,-0.70644 0.15401,-0.89845 0.31189,-0.487 1.05754,-0.14904 1.2758,-0.47406 -0.24947,-0.64562 0.81723,-0.98097 0.77073,-0.1905 -0.0438,0.44342 0.41001,0.2336 0.69381,0.27769 0.29127,-0.003 0.66513,-0.0543 1.08023,-0.10307 0.44066,0.12973 0.41538,-0.56056 0.78581,-0.70167 l 0.0669,-0.0645 z m -3.1242,3.0226 c 0.56596,0.27946 -0.58803,0.82777 0.11498,0.76405 0.47946,0.13402 1.16803,0.0204 1.45029,0.50595 0.17895,0.46836 -0.58328,0.52536 -0.71783,0.90861 -0.52494,0.62314 -1.04951,1.25035 -1.46101,1.9546 -0.48916,0.56246 -0.81645,1.26042 -1.37239,1.76376 -0.5404,0.0212 -0.93617,-0.50127 -1.22681,-0.90563 -0.47603,-0.4406 -0.002,-0.70577 0.43187,-0.8312 0.32223,-0.14743 0.76605,-0.39267 1.11805,-0.62533 0.2487,-0.14616 0.52313,-0.3131 0.2087,-0.60349 -0.0995,-0.35171 -0.31479,-0.40439 -0.59628,-0.48698 -0.37846,-0.17526 -0.56704,-0.5771 -0.7404,-0.93364 -0.11131,-0.32868 0.11841,-0.43992 0.39053,-0.42247 0.69315,-0.27959 1.36979,-0.6028 1.9812,-1.03743 0.14268,0.002 0.27659,-0.0635 0.4191,-0.0508 z m 3.3528,0.7493 c 0.22679,0.0165 0.74082,0.064 1.07772,0.1397 0.63859,0.02 0.2523,0.70589 -0.10885,0.85021 -0.25288,0.35842 -1.23608,0.39994 -0.62061,0.83522 0.33608,0.46562 0.85734,0.70994 1.26112,1.09116 0.61318,0.52281 1.39999,0.8745 2.21332,0.88101 0.11844,0.26264 -0.59172,0.52717 -0.75977,0.79696 -0.55142,0.32443 -1.12522,0.74245 -1.79293,0.72704 -0.45079,-0.35509 -0.53891,-0.95415 -0.87174,-1.42042 -0.48948,-0.89568 -0.78403,-1.92444 -1.54821,-2.6412 -0.27057,-0.21838 -0.43028,-0.55433 0.0756,-0.47565 0.44244,0.11531 0.77987,0.79285 1.11343,0.13082 0.32107,-0.27919 -0.58952,-0.2422 -0.78768,-0.26768 -0.71719,-0.0954 0.0464,-0.83264 0.47509,-0.64717 0.0912,0 0.18233,0 0.2735,0 z m -3.6703,0.1143 c -0.0658,0.31234 -0.73884,0.72601 -0.10081,0.62548 0.239,0.20363 0.38302,0.66563 0.65386,0.19645 0.5924,-0.40384 -0.72602,-0.20254 -0.55305,-0.82193 z m -0.7239,0.9525 c -0.49375,0.34788 -0.0924,0.76215 0.1524,1.0795 0.33681,-0.26428 0.36656,-0.54889 0.0405,-0.82471 0.005,-0.13689 -0.19483,-0.0964 -0.19288,-0.25479 z m 1.905,1.3843 c 0.35464,0.0411 0.7651,0.002 1.1176,0.081 0.27471,0.0902 0.8071,0.29028 0.72152,0.6358 -0.39432,0.21885 -0.90569,-0.009 -1.23269,-0.0214 -0.41434,-0.071 -0.9117,-0.12971 -1.17793,0.28258 -0.5,-0.24261 -0.12074,-0.9066 0.32544,-0.97016 0.0816,-0.0122 0.164,-0.006 0.24606,-0.008 z m -0.6858,1.5621 c 0.4301,-0.0948 0.91465,0.0306 1.35156,-0.007 0.39559,0.0281 0.79905,0.0105 1.15867,-0.0288 0.39842,-0.10144 1.14345,0.51575 0.54968,0.75665 -0.51749,0.21417 -1.10879,-0.0745 -1.66291,-0.0349 0.006,0.19664 -0.005,0.4314 -0.0103,0.58737 0.0599,0.34943 0.0426,0.67479 0.0982,1.00343 0.078,0.19712 0.0764,0.37601 0.0899,0.5741 0.0206,0.37967 0.15634,0.87443 -0.39052,0.78785 -0.39651,-0.21752 -0.99951,-0.41198 -1.22238,-0.79876 0.3844,-0.2598 0.63301,-0.66906 0.64671,-1.15927 0.0596,-0.26644 0.0199,-0.50702 0.0909,-0.76528 0.1667,-0.25788 -0.0862,-0.36099 -0.30581,-0.24214 -0.4287,-0.1197 -0.86875,0.0413 -1.30969,-0.002 -0.56751,-0.41903 0.53433,-0.79514 0.91599,-0.70961 v 0.0313 z m -0.3683,1.0795 c 0.15682,0.38784 -0.18514,0.90693 -0.24209,1.32239 0.0144,0.41208 -0.52933,0.87421 -0.67231,0.27781 -0.0383,-0.57537 0.3251,-1.04749 0.69334,-1.43649 0.0735,-0.0457 0.12157,-0.18175 0.22106,-0.16371 z m 2.9591,0.2286 c 0.6419,0.0322 1.12568,0.61635 1.24877,1.21464 0.28373,0.50568 -0.67674,0.77041 -0.90031,0.36333 -0.15193,-0.41281 -0.33958,-0.69666 -0.44847,-1.03584 -0.0884,-0.2008 -0.33652,-0.602 0.10001,-0.54213 z"
         id="path4" />
      <path
         style="font-family:YEFONTZhuRiHanLiTi;-inkscape-font-specification:YEFONTZhuRiHanLiTi"
         d="m 105.41897,121.83771 c 0.2252,0.47092 -0.27735,0.95554 -0.44595,1.39137 -0.35719,0.62634 -0.67443,1.27872 -1.149,1.82983 -0.33061,0.45407 -0.74381,0.83228 -1.07205,1.2873 -0.37311,0.2741 -0.85855,0.0661 -0.79375,-0.42545 0.0219,-0.12226 0.005,-0.31901 -0.0101,-0.48645 -0.0817,-0.34072 0.11139,-0.64163 0.25256,-0.93178 0.33302,-0.37806 0.67909,-0.75278 1.08739,-1.04909 0.2125,-0.36143 0.49824,-0.30463 0.72295,-0.5503 0.30844,-0.28741 0.61688,-0.57482 0.92532,-0.86223 0.15944,-0.0698 0.31428,-0.15654 0.4826,-0.2032 z m 4.3942,0.762 c 0.37883,0.10286 0.79947,0.072 1.20967,0.1143 0.44127,-0.0316 0.75683,0.42768 0.71756,0.7747 0.0614,0.24473 -0.24796,0.30113 -0.39053,0.4445 -0.27696,0.0851 -0.45933,0.12588 -0.7366,0.0508 -0.39297,-0.095 -0.67145,-0.0244 -1.01334,-0.0851 -0.16279,-0.0298 -0.37982,0.0418 -0.50139,0.0306 -0.19477,0.005 -0.34897,0.0391 -0.59982,0.0299 -0.45594,0.0191 -0.62044,0.55662 -1.07871,0.55543 -0.2516,-0.13913 -0.56961,-0.30043 -0.70029,-0.59862 -0.0129,-0.5272 0.49949,-0.91153 0.94477,-1.09623 0.42054,-0.0924 0.82049,-0.15879 1.24698,-0.15042 0.30056,0.0101 0.60201,-0.0466 0.9017,-0.0699 z m -5.3594,2.2606 c 0.65469,-0.007 0.25072,0.76048 0.2794,1.13665 -0.002,0.32075 0.003,0.79727 0.0456,1.16919 -0.002,0.36357 0.023,0.72045 0.056,1.08506 -0.0866,0.1996 0.0595,0.28869 0.0103,0.48325 -0.005,0.18332 0.0137,0.35198 -0.0103,0.54035 -0.0225,0.27453 0.0803,0.62319 -0.1651,0.8179 0.0155,0.38866 -0.57555,0.52863 -0.70111,0.15138 -0.27352,-0.2784 -0.21995,-0.63431 -0.25774,-0.98958 -0.009,-0.27056 -0.0298,-0.55684 -0.0357,-0.8509 0.0808,-0.38735 0.009,-0.80146 0.12283,-1.24738 0.0532,-0.22254 0.0978,-0.42853 0.13294,-0.70206 0.0551,-0.24113 0.0325,-0.46271 0.1038,-0.69216 -0.1123,-0.32069 0.112,-0.76049 0.3975,-0.9017 z m 3.8227,2.7432 c 0.38055,0.0501 0.67499,-0.0155 1.016,0.0254 0.24554,-0.0564 0.4189,0.0781 0.65842,0.002 0.29885,0.0167 0.52402,0.10485 0.76541,0.13503 0.37906,-0.068 0.74389,-0.0817 1.11935,0.0229 0.18153,-0.0513 0.57858,0.0212 0.87312,0.0183 0.1468,0.0136 0.38244,0.0774 0.56341,0.0577 0.1461,0.038 0.32694,-0.0295 0.41985,0.1005 -0.38207,0.41346 -0.88636,0.76897 -1.34283,1.12804 -0.28382,0.25191 -0.56411,0.57956 -0.99933,0.54253 -0.2867,-0.0969 -0.57926,-0.14342 -0.90562,-0.28778 -0.35723,-0.13446 -0.57701,-0.20085 -0.91659,-0.22065 -0.20911,-0.0362 -0.41516,-0.1374 -0.62889,-0.0758 -0.21018,-0.0386 -0.42018,0.009 -0.62935,-0.0174 -0.27955,0.077 -0.55869,0.011 -0.8375,0.0396 -0.44567,0.0163 -0.75814,0.32849 -1.06997,0.60503 -0.25266,0.16203 -0.53349,0.14597 -0.66198,-0.0358 -0.26379,0.034 -0.0725,-0.21345 -0.146,-0.34874 -0.0192,-0.24292 0.0504,-0.47217 0.21863,-0.652 0.18101,-0.22907 0.33959,-0.48689 0.63697,-0.57767 0.45887,-0.17893 0.91708,-0.26374 1.46645,-0.37743 0.12823,-0.0353 0.29606,-0.0193 0.40045,-0.0834 z"
         id="path5" />
      <path
         style="font-family:YEFONTZhuRiHanLiTi;-inkscape-font-specification:YEFONTZhuRiHanLiTi"
         d="m 109.62267,131.58347 c 0.65571,0.44591 -0.35984,0.83494 -0.64572,1.1305 -0.10574,0.2094 -0.63275,0.87065 -0.27237,0.838 0.3602,-0.0153 0.71832,4.9e-4 1.05779,-0.1143 0.2276,0.16232 0.57802,-0.13391 0.82233,0.0603 0.4394,0.28302 -0.1264,-0.24335 -0.16193,-0.45218 0.0956,-0.28774 0.31999,-0.10201 0.55326,-0.12885 0.48558,-0.0463 0.93282,0.20862 1.35611,0.40362 0.24579,0.32489 0.79668,0.73285 0.45476,1.18021 -0.19707,0.50872 -0.97937,0.72697 -1.2886,0.20146 -0.3181,-0.46351 -0.91616,-0.19372 -1.37306,-0.29939 -0.30077,-0.0179 -0.59756,0.009 -0.89627,0.0508 -0.2069,-0.0388 -0.71748,0.10971 -1.01411,0.0948 -0.18267,0.0658 -0.36533,0.13152 -0.54799,0.19728 0.14332,-0.0923 -0.24648,0.0845 -0.34369,0.0421 -0.40528,0.20102 -0.70098,0.58021 -1.12951,0.73263 -0.45716,-0.0726 -0.47182,-0.64477 -0.2921,-0.9144 0.10867,-0.51407 0.44576,-0.79752 0.7874,-1.1684 0.40314,-0.3739 0.96735,-0.37043 1.41213,-0.63411 0.3639,-0.32908 0.81659,-0.65395 0.97845,-1.1302 0.0354,-0.1831 0.3886,-0.0487 0.54312,-0.0899 z m -3.4671,0.9398 c -0.4353,0.33298 -0.64118,0.84573 -1.08565,1.14796 -0.39051,0.39113 -0.73101,0.82651 -1.10227,1.23592 -0.27604,0.40195 -0.60184,0.83266 -1.07638,1.01218 -0.463,0.31914 -1.16781,-0.10598 -1.0918,-0.66002 -0.0129,-0.30734 0.0389,-0.70915 0.41513,-0.79532 0.44031,-0.2684 0.88285,-0.53397 1.33826,-0.77153 0.73465,-0.36496 1.39623,-0.86607 2.17974,-1.13139 0.11628,-0.002 0.4902,-0.30009 0.42297,-0.0378 z m -1.5875,2.6543 c 0.52494,0.2058 0.33848,0.80512 0.36195,1.2065 0.0228,0.18664 -0.0616,0.40852 0.006,0.5969 -0.0558,0.34697 0.0596,0.74118 0.0762,1.1049 -0.0362,0.2804 0.0612,0.6459 0.0774,0.97274 0.0192,0.35797 0.0612,0.67365 0.10041,1.01562 0.0554,0.37044 0.0636,0.78872 -0.41315,0.89355 -0.37961,0.13994 -0.8141,-0.38228 -0.78065,-0.78641 -0.0386,-0.17957 -0.069,-0.46731 0.003,-0.64452 0.0133,-0.17537 0.008,-0.52682 -0.0159,-0.57468 0.0191,-0.24222 0.11175,-0.48707 0.0381,-0.7239 0.16306,-0.2123 0.0336,-0.61299 0.11747,-0.90487 -0.0259,-0.37178 0.12172,-0.80108 0.15875,-1.1811 0.12446,-0.40146 -0.002,-0.53329 0.11034,-0.88186 l 0.0675,-0.0516 z m 3.429,-0.2159 c 0.43457,0.20561 0.70042,0.78164 0.10616,0.98971 -0.34347,0.26297 -0.42902,0.73287 -0.64531,1.06332 -0.55503,0.30798 -1.2414,0.10641 -1.65934,-0.33789 -0.27336,-0.10315 -0.34338,-0.52612 -0.0259,-0.57214 0.51284,-0.011 1.05572,0.006 1.52982,-0.21193 0.24134,-0.23761 0.30532,-0.90517 0.69453,-0.93107 z m 2.6543,0.127 c 0.36561,0.0981 0.67314,0.35683 1.06389,0.36249 0.37023,-0.0304 0.74153,0.0596 1.13136,0.0439 0.36184,-0.0691 0.36117,0.32592 0.10028,0.4953 -0.28679,0.20872 -0.4588,0.79497 -0.87154,0.69869 -0.36421,0.3943 -0.97768,-0.0919 -1.19043,-0.43278 -0.0949,-0.32062 -0.42179,-0.88454 -0.23356,-1.16761 z m -1.9685,0.9652 c 0.31997,0.10212 0.57659,0.89463 0.1016,0.889 0.21984,-0.0393 0.35827,-0.0484 0.56237,-0.0391 0.52169,0.055 1.12059,-0.20192 1.58393,0.0613 0.61248,0.39169 -0.17148,0.80778 -0.39573,1.16338 -0.72867,0.32804 0.27644,0.60178 0.507,0.93703 0.18068,0.20741 0.41641,0.31048 0.68096,0.36056 0.35399,0.0994 0.70798,0.19873 1.06197,0.2981 0.33328,0.0644 0.75877,-0.25086 0.98108,-0.054 -0.0524,0.44163 -0.44815,0.74711 -0.71378,1.07315 -0.25869,0.40256 -0.7412,0.48149 -1.17237,0.5334 -0.34672,0.0307 -0.77715,-0.2802 -0.98247,-0.63023 -0.40106,-0.57566 -0.77206,-1.17381 -1.21126,-1.72244 -0.55971,0.45677 -1.11867,0.93081 -1.52603,1.53204 -0.28071,0.44322 -0.95407,0.67086 -1.39021,0.3301 -0.36942,-0.24353 -1.00368,-0.76837 -0.73342,-1.22873 0.34726,0.0736 0.66173,0.0964 0.98584,-0.0556 0.21558,-0.10533 0.62405,-0.15258 0.75406,-0.14843 0.5555,-0.10353 1.05647,-0.47112 1.45256,-0.87392 -0.24453,-0.19255 -0.68368,-0.59959 -1.06495,-0.4572 -0.41666,-0.28943 -0.25851,0.71862 -0.70114,0.65564 -0.14884,0.0383 -0.33874,0.0776 -0.54531,0.0556 -0.42392,-0.19489 -1.1675,-0.4166 -1.08267,-0.98743 0.14881,-0.22171 0.46238,-0.0935 0.69554,-0.0432 0.44897,-0.0947 1.00932,-0.0623 1.28332,-0.50403 0.21671,-0.30808 0.44975,-0.66928 0.48335,-0.93072 0.13875,-0.0513 0.26255,-0.13415 0.38576,-0.21431 z m 0.3175,1.5621 c 0.22833,-0.17287 0.77438,0.75709 1.02389,0.11787 0.0974,-0.2133 0.53679,-0.32689 0.0962,-0.18951 -0.37173,0.0295 -0.77472,0.0674 -1.12013,0.0716 z"
         id="path6" />
    </g>
  </g>
</svg>
